<svg xmlns="http://www.w3.org/2000/svg" width="512" height="512"><path d="M512 307.2V204.8l-61.44-15.36c-2.56-7.68-5.12-15.36-10.24-23.04l33.28-56.32-71.68-71.68-56.32 33.28c-7.68-2.56-15.36-7.68-23.04-10.24L307.2 0H204.8l-15.36 61.44c-7.68 5.12-15.36 7.68-23.04 10.24L110.08 38.4 38.4 110.08l33.28 56.32c-2.56 7.68-7.68 15.36-10.24 23.04L0 204.8v102.4l61.44 15.36c2.56 7.68 5.12 15.36 10.24 23.04L38.4 401.92l71.68 71.68 56.32-33.28c7.68 2.56 15.36 7.68 23.04 10.24L204.8 512h102.4l15.36-61.44c7.68-2.56 15.36-5.12 23.04-10.24l56.32 33.28 71.68-71.68-33.28-56.32c2.56-7.68 7.68-15.36 10.24-23.04L512 307.2zm-256 25.6c-43.52 0-76.8-33.28-76.8-76.8s33.28-76.8 76.8-76.8 76.8 33.28 76.8 76.8-33.28 76.8-76.8 76.8z" fill="#ff0036" data-original="#000000" xmlns="http://www.w3.org/2000/svg"/></svg>