<svg width="26" height="19" fill="none" xmlns="http://www.w3.org/2000/svg"><path d="M22.454 2.364S19.745.244 16.546 0l-.288.577c2.893.708 4.22 1.722 5.607 2.968-2.39-1.22-4.75-2.363-8.864-2.363-4.113 0-6.473 1.143-8.864 2.363C5.523 2.3 7.102 1.173 9.743.577L9.455 0c-3.357.317-5.91 2.364-5.91 2.364S.52 6.75 0 15.364c3.05 3.517 7.682 3.545 7.682 3.545l.968-1.291a11.835 11.835 0 01-5.105-3.436C5.46 15.629 8.347 17.136 13 17.136c4.653 0 7.541-1.506 9.454-2.954a11.835 11.835 0 01-5.104 3.436l.968 1.291s4.632-.028 7.682-3.545c-.52-8.613-3.546-13-3.546-13zM9.16 13c-1.142 0-2.068-1.058-2.068-2.364 0-1.305.926-2.363 2.068-2.363s2.068 1.058 2.068 2.363c0 1.306-.926 2.364-2.068 2.364zm7.682 0c-1.142 0-2.068-1.058-2.068-2.364 0-1.305.926-2.363 2.068-2.363s2.068 1.058 2.068 2.363c0 1.306-.926 2.364-2.068 2.364z" fill="#fff"/></svg>