<svg width="54" height="50" xmlns="http://www.w3.org/2000/svg" xmlns:xlink="http://www.w3.org/1999/xlink"><defs><path d="M27.973 25.97s11.408.123 18.529 6.764C53.62 39.364 53.757 50 53.757 50s-11.414-.122-18.534-6.758c-7.117-6.634-7.25-17.271-7.25-17.271zm-1.946 0s-.134 10.638-7.32 17.272C11.521 49.878 0 50 0 50s.137-10.635 7.323-17.266c7.188-6.64 18.704-6.763 18.704-6.763zm4.135 20.996A3.037 3.037 0 0127.122 50a3.037 3.037 0 01-3.04-3.034 3.037 3.037 0 013.04-3.034 3.037 3.037 0 013.04 3.034zM53.757 0s-.136 10.635-7.255 17.266c-7.12 6.64-18.529 6.763-18.529 6.763s.133-10.637 7.252-17.27C42.343.121 53.757 0 53.757 0zm-27.73 24.03s-11.516-.123-18.704-6.764C.138 10.636 0 0 0 0s11.521.122 18.708 6.758c7.185 6.634 7.319 17.271 7.319 17.271zm4.135-20.996a3.037 3.037 0 01-3.04 3.034 3.037 3.037 0 01-3.04-3.034A3.037 3.037 0 0127.121 0a3.037 3.037 0 013.04 3.034z" id="a"/></defs><use fill="#FD5001" xlink:href="#a" fill-rule="evenodd"/></svg>