<svg width="18" height="14" fill="none" xmlns="http://www.w3.org/2000/svg"><path fill-rule="evenodd" clip-rule="evenodd" d="M17.227 1.658a7.12 7.12 0 01-2.031.555A3.535 3.535 0 0016.748.257c-.684.406-1.44.7-2.244.859A3.536 3.536 0 008.481 4.34 10.03 10.03 0 011.196.644a3.524 3.524 0 00-.479 1.777 3.53 3.53 0 001.574 2.94A3.527 3.527 0 01.689 4.92v.044a3.536 3.536 0 002.836 3.465 3.58 3.58 0 01-1.597.06 3.54 3.54 0 003.301 2.454 7.09 7.09 0 01-4.39 1.515c-.286 0-.566-.018-.844-.05a10.004 10.004 0 005.42 1.59c6.5 0 10.056-5.386 10.056-10.057 0-.154-.003-.306-.01-.458a7.15 7.15 0 001.763-1.83l.003.005z" fill="#41ABE1"/></svg>