<svg width="26" height="19" viewBox="0 0 26 19" fill="none" xmlns="http://www.w3.org/2000/svg">
<path d="M22.4545 2.36364C22.4545 2.36364 19.7452 0.243455 16.5455 0L16.2571 0.576727C19.1502 1.28464 20.4774 2.29923 21.8636 3.54545C19.4734 2.32523 17.1133 1.18182 13 1.18182C8.88668 1.18182 6.52659 2.32523 4.13636 3.54545C5.52264 2.29923 7.10155 1.17295 9.74291 0.576727L9.45455 0C6.09759 0.317318 3.54545 2.36364 3.54545 2.36364C3.54545 2.36364 0.519409 6.75114 0 15.3636C3.05027 18.8813 7.68182 18.9091 7.68182 18.9091L8.65032 17.618C7.00641 17.0465 5.14977 16.026 3.54545 14.1818C5.45882 15.6295 8.34659 17.1364 13 17.1364C17.6534 17.1364 20.5412 15.6295 22.4545 14.1818C20.8502 16.026 18.9936 17.0465 17.3497 17.618L18.3182 18.9091C18.3182 18.9091 22.9497 18.8813 26 15.3636C25.4806 6.75114 22.4545 2.36364 22.4545 2.36364ZM9.15909 13C8.01686 13 7.09091 11.9417 7.09091 10.6364C7.09091 9.33104 8.01686 8.27273 9.15909 8.27273C10.3013 8.27273 11.2273 9.33104 11.2273 10.6364C11.2273 11.9417 10.3013 13 9.15909 13ZM16.8409 13C15.6987 13 14.7727 11.9417 14.7727 10.6364C14.7727 9.33104 15.6987 8.27273 16.8409 8.27273C17.9831 8.27273 18.9091 9.33104 18.9091 10.6364C18.9091 11.9417 17.9831 13 16.8409 13Z" fill="white"/>
</svg>
