<?xml version="1.0" encoding="UTF-8"?>
<svg width="54px" height="50px" viewBox="0 0 54 50" version="1.1" xmlns="http://www.w3.org/2000/svg" xmlns:xlink="http://www.w3.org/1999/xlink">
    <!-- Generator: Sketch 53.2 (72643) - https://sketchapp.com -->
    <title>flower</title>
    <desc>Created with Sketch.</desc>
    <defs>
        <path d="M27.972973,25.9708738 C27.972973,25.9708738 39.3814052,26.0931746 46.5017694,32.7336709 C53.6204372,39.364907 53.7567568,50 53.7567568,50 C53.7567568,50 42.3434777,49.8776991 35.2231134,43.241833 C28.1058997,36.6075478 27.972973,25.9708738 27.972973,25.9708738 Z M26.027027,25.9708738 C26.027027,25.9708738 25.892845,36.6075478 18.7069524,43.241833 C11.5210598,49.8776991 0,50 0,50 C0,50 0.137362249,39.364907 7.32325484,32.7336709 C14.5108599,26.0931746 26.027027,25.9708738 26.027027,25.9708738 Z M30.1621622,46.9660771 C30.1621622,48.6417286 28.8008642,50 27.1216216,50 C25.442379,50 24.0810811,48.6417286 24.0810811,46.9660771 C24.0810811,45.2903102 25.442379,43.9320388 27.1216216,43.9320388 C28.8008642,43.9320388 30.1621622,45.2903102 30.1621622,46.9660771 Z M53.7567568,0 C53.7567568,0 53.6205571,10.635093 46.5018224,17.2664421 C39.3813912,23.9068254 27.972973,24.0291262 27.972973,24.0291262 C27.972973,24.0291262 28.1057798,13.3924522 35.2246357,6.75816704 C42.3433704,0.122300859 53.7567568,0 53.7567568,0 Z M26.027027,24.0291262 C26.027027,24.0291262 14.5109681,23.9068254 7.32343064,17.2664421 C0.13760559,10.635093 0,0 0,0 C0,0 11.5209516,0.122300859 18.708489,6.75816704 C25.8928463,13.3924522 26.027027,24.0291262 26.027027,24.0291262 Z M30.1621622,3.03398058 C30.1621622,4.7096002 28.8008642,6.06796117 27.1216216,6.06796117 C25.442379,6.06796117 24.0810811,4.7096002 24.0810811,3.03398058 C24.0810811,1.35836097 25.442379,0 27.1216216,0 C28.8008642,0 30.1621622,1.35836097 30.1621622,3.03398058 Z" id="path-1"></path>
    </defs>
    <g id="Page-1" stroke="none" stroke-width="1" fill="none" fill-rule="evenodd">
        <g id="1.GR-Homepage" transform="translate(-694.000000, -4997.000000)">
            <g id="Footer" transform="translate(-248.000000, 4997.000000)">
                <g id="Group-23">
                    <g id="flower" transform="translate(942.000000, 0.000000)">
                        <g id="Bitmap">
                            <g id="Group-18">
                                <g id="Bitmap">
                                    <mask id="mask-2" fill="white">
                                        <use xlink:href="#path-1"></use>
                                    </mask>
                                    <use id="Mask" fill="#FD5001" xlink:href="#path-1"></use>
                                </g>
                            </g>
                        </g>
                    </g>
                </g>
            </g>
        </g>
    </g>
</svg>