<svg width="18" height="14" viewBox="0 0 18 14" fill="none" xmlns="http://www.w3.org/2000/svg">
<path fill-rule="evenodd" clip-rule="evenodd" d="M17.2265 1.6581C16.5915 1.9383 15.9103 2.12853 15.1956 2.21337C15.9257 1.77635 16.4861 1.08226 16.7483 0.257069C16.0645 0.663239 15.3087 0.956298 14.5041 1.11568C13.8589 0.429306 12.9411 0 11.9231 0C9.97198 0 8.38843 1.58355 8.38843 3.5347C8.38843 3.81234 8.41928 4.08226 8.48098 4.33933C5.54268 4.1928 2.93856 2.78406 1.19563 0.645244C0.89229 1.1671 0.717482 1.77378 0.717482 2.42159C0.717482 3.64781 1.34216 4.73008 2.29075 5.36247C1.71234 5.34447 1.16735 5.18509 0.689205 4.92031C0.689205 4.93573 0.689205 4.94859 0.689205 4.96401C0.689205 6.67609 1.90771 8.1054 3.52468 8.42931C3.22905 8.509 2.91543 8.5527 2.59409 8.5527C2.3653 8.5527 2.14422 8.52956 1.92828 8.48843C2.37815 9.89203 3.68406 10.9152 5.22905 10.9434C4.01825 11.892 2.4964 12.4576 0.838305 12.4576C0.552958 12.4576 0.272752 12.4396 -0.00488281 12.4087C1.5581 13.4113 3.41671 13.9974 5.41414 13.9974C11.9154 13.9974 15.4707 8.61183 15.4707 3.94087C15.4707 3.78663 15.4681 3.63496 15.4604 3.48329C16.1519 2.98458 16.7509 2.36247 17.2239 1.65296L17.2265 1.6581Z" fill="#41ABE1"/>
</svg>
